<?xml version="1.0" encoding="UTF-8"?>
<svg width="288px" height="223px" viewBox="0 0 288 223" version="1.1" xmlns="http://www.w3.org/2000/svg" xmlns:xlink="http://www.w3.org/1999/xlink">
    <!-- Generator: Sketch 48.2 (47327) - http://www.bohemiancoding.com/sketch -->
    <title>Group</title>
    <desc>Created with Sketch.</desc>
    <defs></defs>
    <g id="Page-1" stroke="none" stroke-width="1" fill="none" fill-rule="evenodd">
        <g id="Group" fill="#FFFFFF" fill-rule="nonzero">
            <path d="M143.9,0 C64.5,0 0,49 0,109.2 C0,169.4 64.5,222.2 143.9,222.2 C223.2,222.2 287.8,169.4 287.8,109.2 C287.7,49 223.2,0 143.9,0 Z M143.9,214.8 C75.2,214.8 19.4,165.5 19.4,109.4 C19.3,53.2 75.2,7.5 143.9,7.5 C212.6,7.5 268.5,53.2 268.5,109.4 C268.4,165.5 212.6,214.8 143.9,214.8 Z" id="Shape"></path>
            <g id="a-link" transform="translate(42.000000, 12.000000)">
                <path d="M74.4,144.2 L76.9,146.7 L81.9,149.5 L86.6,152.1 L87.2,152.4 L90.7,154.3 L96.6,157.5 C96.9,157.6 97.7,157.6 97.7,157.6 L105.2,157.1 C109.5,157 114.6,157.1 117.9,158.6 C121.6,160.5 120.4,164 120.4,164 C120.4,164 124.2,161.3 123.5,158 C123.1,155.2 119.8,151.6 108.8,151 C105.3,150.8 100.2,151.3 100.2,151.3 L99.7,151.3 C99.7,151.2 94.8,148.1 94.8,148.1 L92.7,146.9 C92.4,146.8 85.9,143.3 85.9,143.3 C85.9,143.3 81.8,141.7 81.7,141.7 C81.7,141.6 78,136.4 78,136.4 L76.6,134.5 L72.7,128.8 L71,126.3 C70.9,126.2 68.7,122.8 68.7,122.8 C68.9,122.9 70.9,119.7 70.7,116.3 C70.4,116.7 70.2,116.9 68.7,118.2 C67.1,119.4 62.5,121.5 59.4,122.3 L58,122.7 L69,137.1 L74.4,144.2 Z M92.5,136 L93.3,137 C93.6,137.3 98.3,139.1 98.3,139.1 C101.4,140.4 105.7,142.3 107.6,143.5 L112.9,146.6 C113.3,146.8 118.7,146.4 122.3,146.7 C126.8,147.1 130.2,148.7 132,151.3 C134.4,154.8 131.5,158.4 131.5,158.4 C132.1,158.1 137.2,154.9 136.8,149.8 C136.5,144.9 132.2,140.3 116.5,140.5 C116.5,140.4 112.2,137.9 112.2,137.9 L110.9,137.2 L103.9,133.6 L98.2,131.7 C98.2,131.5 96.9,129.2 96.9,129.2 C95.1,125.9 92.5,122.6 90.3,119.7 L89.6,118.9 C89.6,118.9 85.7,113.6 85.3,112.9 C86.5,110.3 85.5,106.5 85.5,106.5 C85.5,106.5 84.8,107.8 83.8,109.1 C82.7,110.5 79.9,112.7 77.9,113.8 L76.8,114.5 L91.1,134 L92.5,136 Z M98.9,101.2 C99.8,98.1 98.1,95 98.1,95 L97.3,97 C96.6,98.7 94.7,100.7 91.8,102.6 L90.9,103.1 L102.4,119.6 L103.1,120.7 L105.3,123.7 C105.6,124 110.1,126.5 110.1,126.5 L111.8,127.5 L117,130.6 L121.8,133.8 L122.2,133.9 L129.3,134.4 C133.6,134.8 136.1,136.4 137.4,137.3 C141.9,140.5 139.5,145.4 139.5,145.4 C139.5,145.4 145.5,139.7 141.6,133.6 C140.1,131.5 138.1,129.4 132.1,128.7 L124.8,127.7 L120.9,125 L115.7,121.8 L114.4,121 L110,119 L98.9,101.2 Z M51,3.3 L52.6,4.9 L58.4,10.2 L61.7,13.3 C64.2,15.7 64.7,16.9 64.7,17.3 C64.6,17.7 64.1,18 63.7,18.2 C63.3,18.5 62.6,18.6 62.6,18.6 L62.3,20.8 L63.7,20.7 C71.4,20.5 78.6,25.7 83.3,30.1 C91.4,37.8 97.5,50.4 98.9,62.1 L105.2,95 L107.6,100.1 L108.1,101.1 L109.1,103.3 C110,105.4 111.4,107.3 111.5,107.5 C111.7,107.6 114.8,110.1 114.8,110.1 L119.4,114.8 L120.8,116.3 L123,118.5 C123.2,118.6 129.6,119.5 129.6,119.5 C140.8,121.4 140.4,127.6 140.4,127.6 C140.4,127.6 147.1,117.3 131.1,113.7 C131.1,113.7 126.1,112.8 126,112.8 C126,112.7 124.2,110.2 124.2,110.2 C124,110 123.6,109.5 123.6,109.5 C123.5,109.4 118.7,104.7 118.7,104.7 L116.5,102.6 C116.5,102.5 114.5,97.3 114.5,97.3 L111.7,90.5 C111,88.4 110.5,85 109.9,80.4 C109.9,80.2 109.4,77.1 109.4,77.1 L107.3,63.3 C107.3,63.1 107.8,60.6 107.8,60.6 C108.7,55.4 110.6,49.7 113.6,43.5 C117.1,36.1 124.4,31.3 124.4,31.2 C129.8,27.9 137.7,26 142,25.2 C143.6,25 144.1,24.1 144.4,23.1 L144.6,22.5 L144.1,22.4 C141.7,22 139,21.2 138.8,20.7 C138.8,20.6 138.7,20.4 138.7,20.3 C138.7,19.9 139,19.2 139.6,18.4 L143.1,15.1 L145.1,13.1 C145.1,13.1 153.5,4.9 154.6,3.9 L146.8,1.3 C145.8,2.4 138.1,10.3 138.1,10.3 C132.4,16.5 125.9,23.4 122.9,24.6 C115.6,27.6 108.2,34.7 105.2,41.5 C105.2,41.5 103.9,44.9 103.2,46.7 C101,40.4 98.2,35.1 94.5,30.5 C90.4,25.6 85.4,21.9 79.1,19.3 C75.7,16.1 64.6,5.9 58.5,0.9 L51,3.3 Z M80.8,169.6 C70.6,174.8 64.9,170.3 67.4,164.8 C70.7,167.1 75.9,168.7 80.8,169.6 Z M63.2,161.8 C56.2,163.7 53.6,158.8 55.3,154.8 C56.6,156.4 61.5,160.8 63.2,161.8 Z M0.4,36.9 C0.9,37.3 2.3,38.2 2.3,38.2 C2.5,38.3 11.2,45.5 12.4,46.6 C12.2,47.2 8.6,57 8.6,57 C5.3,65.2 2,73.5 1.9,80.1 L2,81.1 C2,81.2 4.8,95.9 4.8,95.9 L5,97 C6.6,104.7 8.4,113.5 9.1,119.8 C9.3,121.6 9.7,122.6 10.4,123.1 C14.7,127.6 21.7,136.6 30.1,153.8 C30.4,154.2 30.5,154.5 30.6,154.7 C31.4,157.1 32.4,158.7 33.6,159.4 C35.1,160.3 38.1,160.4 40,159.4 C44.3,156.6 47.4,152.6 49.3,147.8 C50,148.6 51.8,150.9 52,151.3 C44.7,163.9 57.6,168.6 62.1,166.7 C59.5,174.3 69.2,180.5 78.4,176.4 C79.6,181.4 83.5,182.8 87.3,183.5 C91,184.2 96.1,184.6 104.3,183.9 C116.7,182.9 128,179.1 132.5,176.7 C142.1,171.8 147.3,165.6 150.4,161.3 C150.5,161.2 151,160.5 151.4,160 C152.4,161.8 153.5,163.5 154.7,164.8 C157.8,167.8 160.6,169.1 163,168.7 C164.7,168.4 166,167.4 166.9,165.5 C171.2,155.3 180.4,142.6 187.7,134.2 L188.4,132.8 C190,126.8 195.6,111.9 198.7,103.9 L200.9,98.1 L201.3,96.7 C201.4,94.4 201.5,92.1 201.5,89.8 C201.5,79.5 200,69.6 197.2,61.2 C195.8,57 194.4,54.4 193.1,51.9 L191.6,49.1 C193.7,46 199.7,42 204.5,38.7 C204.5,38.7 202.666667,36.4666667 199,32 C198.6,32.2 194.9,34.9 194.9,34.9 C190.6,37.8 186.2,39 183.5,37.9 C183.1,37.8 179.5,35.7 179.5,35.7 C179.3,35.5 178.7,35.2 178.7,35.2 C178.6,35.2 177.5,35 177.5,35 C177.3,35 176.2,35.3 176.2,35.3 L175.4,35.5 L176.6,36.9 C179.1,39.9 180.4,42.5 182.3,46 C182.4,46.1 183.4,48.1 183.4,48.1 L184.4,50.5 L184.6,51 L186,54.5 L186.3,55.2 L187,57.2 L189.9,67.3 C192.3,77.5 193.6,86 193.6,93.2 C193.6,93.3 193.5,94 193.5,94 L190.1,103.5 C186.6,113.3 182.3,125.5 181.3,130.5 L181.1,131.1 C171.8,140.8 165.2,152.2 162.4,159 C162,159.9 161.6,160 161.5,160 C161.1,160.1 160,159.1 159.4,158.5 C157.1,156.4 155.7,152 155.9,147.4 C156.1,141.7 158.6,136.7 162.6,133.5 C163.3,133 163,132.1 162.9,131.5 C161.8,125 163.6,115.2 167.6,112.4 L168.6,111.7 L167.6,110.9 C156.2,102.1 150.7,85.8 150.2,73.6 L150.1,72 L148.3,72.7 C148.1,72.9 147.4,73.9 147.4,73.9 C147,76.3 146.8,78.7 146.8,81 C146.8,87.3 148,92.7 148.5,94.7 C150.1,101.4 153.4,107.7 158.3,113.2 C156.4,116.2 155.5,122.6 155.5,127.6 C155.5,129.1 155.6,130.4 155.8,131.5 C150.5,136.1 149,141.9 148.7,146.1 C148.7,146.1 148.9,150.5 148.9,150.6 C148.8,150.5 146.3,153.9 146.3,153.9 L145.8,154.6 C140.7,161.6 137.2,166.4 128.7,170.8 C119.5,175.6 101.6,178.9 90.1,177.7 C85.8,177.2 86.3,173.4 86.3,173.2 C86.3,172.7 86.5,172.1 86.9,171.6 C86.9,171.6 87.8,170.7 88,170.4 C99,171.6 109.4,170.3 113.8,168 C114,167.8 115.3,165.8 115.3,165.8 L115.8,164.9 L114.7,165.1 C105.4,167.4 86.9,164.4 77.1,160.2 C66.2,155.5 62.9,151.1 54,139.4 L51.5,136.1 C51.4,132.8 50.5,129.5 48.9,126.6 C47.4,123.9 45.4,122.3 44.8,121.8 C45.5,119.8 45.9,117.1 45.9,114.2 C45.9,110.3 45.2,106.3 43.8,104 C50.4,98.8 53.8,93.5 53.7,87.4 C53.6,84.5 52.1,80.1 52.1,80.1 L49.6,78.9 L49.8,80.6 C50.8,90.9 41.2,97.6 34.8,102.1 L32.9,103.4 L34.1,104.2 C39.1,107.3 39.2,117.8 38,123.7 L38.2,124.5 L40.9,126.6 C45.9,133.4 45.5,143.8 40,150 C38.9,151.2 38.3,151.3 38,151.3 C37.2,151.1 36.5,149.2 36.3,148.6 C36.3,148.5 34.7,145.4 34.7,145.4 C30.3,136.3 26.7,128.7 18.2,118.6 L18,117.8 C16.4,104.6 14.3,94.8 12.3,85.3 L11.2,80.2 L11.1,78.9 C11.7,68.8 14.8,60.9 18.5,51.8 L20.7,46.1 L22.5,41.7 L22.8,41.1 C24.9,38 27.8,35.1 31.3,32.5 L32.9,31.3 L30.9,30.5 C30.9,30.5 26.9,30.9 23,32.9 L22.3,33.2 C19,35 15.7,36 13.2,35.1 C13.2,35.1 6.5,31.1 6.2,30.9 L0.4,36.9 Z" id="a"></path>
            </g>
        </g>
    </g>
</svg>